<svg xmlns="http://www.w3.org/2000/svg" version="1.1" xmlns:xlink="http://www.w3.org/1999/xlink" width="512" height="512" x="0" y="0" viewBox="0 0 512 512" style="enable-background:new 0 0 512 512" xml:space="preserve" class=""><g><path d="M455.556 361.391c0 52.006-42.159 94.165-94.165 94.165H150.609c-52.006 0-94.165-42.159-94.165-94.165V150.609c0-52.006 42.159-94.165 94.165-94.165h210.782c52.006 0 94.165 42.159 94.165 94.165v210.782z" style="" fill="#e8f3ff" data-original="#e8f3ff" class=""></path><path d="M255.999 56.444h-105.39c-52.006 0-94.165 42.159-94.165 94.165v210.782c0 52.005 42.159 94.165 94.165 94.165h105.39V56.444z" style="" fill="#fff" data-original="#fff" class=""></path><path d="M271.294 242.104V187.76c25.526 4.476 25.531 20.337 25.531 26.111h30.589c0-31.9-20.682-52.481-56.12-56.962v-21.724h-30.589v21.724c-35.437 4.481-56.12 25.061-56.12 56.962s20.682 52.48 56.12 56.961v54.344c-25.526-4.476-25.531-20.337-25.531-26.111h-30.589c0 31.9 20.682 52.481 56.12 56.962v21.724h30.589v-21.724c35.437-4.481 56.12-25.061 56.12-56.962s-20.683-52.48-56.12-56.961zm-56.12-28.233c0-5.774.005-21.635 25.531-26.111v52.221c-25.526-4.475-25.531-20.335-25.531-26.11zm56.12 111.306v-52.222c25.526 4.476 25.531 20.337 25.531 26.111s-.005 21.634-25.531 26.111z" style="" fill="#3ab94b" data-original="#3ab94b" class=""></path><path d="M361.391 41.149H150.609c-60.355 0-109.46 49.104-109.46 109.461v51.652l-19.521-19.521L0 204.37l56.444 56.444 56.443-56.444-21.629-21.629-19.52 19.52v-51.652c0-43.489 35.381-78.872 78.871-78.872H361.39c43.488 0 78.871 35.381 78.871 78.872v78.379h30.589v-78.379c0-60.356-49.104-109.46-109.459-109.46z" style="" fill="#1a8dff" data-original="#1a8dff" class=""></path><path d="m512 316.038-56.444-56.443-56.443 56.443 21.63 21.629 19.52-19.52v43.244c0 43.488-35.381 78.871-78.871 78.871H150.609c-43.488 0-78.871-35.381-78.871-78.871V291.42H41.149v69.971c0 60.356 49.104 109.46 109.46 109.46h210.782c60.355 0 109.46-49.103 109.46-109.46v-43.245l19.521 19.52L512 316.038z" style="" fill="#1a8dff" data-original="#1a8dff"></path></g></svg>
