<svg xmlns="http://www.w3.org/2000/svg" version="1.1" xmlns:xlink="http://www.w3.org/1999/xlink" width="512" height="512" x="0" y="0" viewBox="0 0 72 72" style="enable-background:new 0 0 512 512" xml:space="preserve" class=""><g><path d="M57.007 54h-49c-1.654 0-3-1.346-3-3V18h37a1 1 0 0 0 0-2h-37v-3c0-1.654 1.346-3 3-3h52c1.654 0 3 1.346 3 3v3h-3a1 1 0 0 0 0 2h3v10a1 1 0 0 0 2 0V13c0-2.757-2.243-5-5-5h-52c-2.757 0-5 2.243-5 5v38c0 2.757 2.243 5 5 5h49a1 1 0 0 0 0-2z" fill="#000000" opacity="1" data-original="#000000" class=""></path><circle cx="9.007" cy="13" r="1" fill="#000000" opacity="1" data-original="#000000" class=""></circle><circle cx="14.007" cy="13" r="1" fill="#000000" opacity="1" data-original="#000000" class=""></circle><circle cx="19.007" cy="13" r="1" fill="#000000" opacity="1" data-original="#000000" class=""></circle><path d="M57.007 17a1 1 0 0 0-1-1h-10a1 1 0 0 0 0 2h10a1 1 0 0 0 1-1zM19.8 31.707a.999.999 0 0 0 1.414 0l2.293-2.293 2.293 2.293a.999.999 0 1 0 1.414-1.414L24.921 28l2.293-2.293a.999.999 0 1 0-1.414-1.414l-2.293 2.293-2.293-2.293a.999.999 0 1 0-1.414 1.414L22.093 28 19.8 30.293a1 1 0 0 0 0 1.414zM40.8 31.707a.999.999 0 0 0 1.414 0l2.293-2.293 2.293 2.293a.999.999 0 1 0 1.414-1.414L45.921 28l2.293-2.293a.999.999 0 1 0-1.414-1.414l-2.293 2.293-2.293-2.293a.999.999 0 1 0-1.414 1.414L43.093 28 40.8 30.293a1 1 0 0 0 0 1.414zM15.175 46.555c.306.458.926.583 1.387.277a31.368 31.368 0 0 1 34.891 0 1 1 0 1 0 1.109-1.664 33.359 33.359 0 0 0-37.109 0 1 1 0 0 0-.278 1.387zM66.908 32.877C65.956 31.685 64.534 31 63.007 31s-2.948.684-3.901 1.877a4.965 4.965 0 0 0-.966 4.22l3.892 17.125a1.001 1.001 0 0 0 1.95 0l3.892-17.125a4.969 4.969 0 0 0-.966-4.22zm-.984 3.777-2.917 12.834-2.917-12.834c-.203-.892.008-1.814.579-2.529S62.092 33 63.007 33s1.767.41 2.338 1.125.781 1.637.579 2.529zM63.007 56c-2.206 0-4 1.794-4 4s1.794 4 4 4 4-1.794 4-4-1.794-4-4-4zm0 6c-1.103 0-2-.897-2-2s.897-2 2-2 2 .897 2 2-.897 2-2 2z" fill="#000000" opacity="1" data-original="#000000" class=""></path></g></svg>
